<?xml version="1.0" encoding="UTF-8"?>
<svg width="100px" height="100px" viewBox="0 0 100 100" version="1.1" xmlns="http://www.w3.org/2000/svg" xmlns:xlink="http://www.w3.org/1999/xlink">
    <!-- Generator: Sketch 52.5 (67469) - http://www.bohemiancoding.com/sketch -->
    <title>Group 12</title>
    <desc>Created with Sketch.</desc>
    <g id="Page-1" stroke="none" stroke-width="1" fill="none" fill-rule="evenodd">
        <g id="Partner-With-Us" transform="translate(-910.000000, -1640.000000)">
            <g id="Group-12" transform="translate(910.000000, 1640.000000)">
                <circle id="Oval-Copy-13" fill="#D8D8D8" fill-rule="nonzero" opacity="0.329999983" cx="50" cy="50" r="50"></circle>
                <g id="1238437" transform="translate(20.000000, 20.000000)">
                    <path d="M2.03169181,43.7287903 L42.6664419,43.7287903 C43.7886053,43.7287903 44.6985909,44.6392822 44.6985909,45.7626342 L44.6985909,57.966156 C44.6985909,59.0895081 43.7886053,60 42.6664419,60 L2.03169181,60 C0.909528431,60 2.84217094e-14,59.0895081 2.84217094e-14,57.966156 L2.84217094e-14,45.7626342 C2.84217094e-14,44.6392822 0.909528431,43.7287903 2.03169181,43.7287903 Z" id="Path" fill="#F0C419"></path>
                    <path d="M2.03169181,22.3727416 L42.6664419,22.3727416 C43.7886053,22.3727416 44.6985909,23.2836914 44.6985909,24.4065857 L44.6985909,36.6101074 C44.6985909,37.7334595 43.7886053,38.6439514 42.6664419,38.6439514 L2.03169181,38.6439514 C0.909528431,38.6439514 2.84217094e-14,37.7334595 2.84217094e-14,36.6101074 L2.84217094e-14,24.4065857 C2.84217094e-14,23.2836914 0.909528431,22.3727416 2.03169181,22.3727416 Z" id="Path" fill="#F0C419"></path>
                    <path d="M16.2539915,1.01715094 L56.8887417,1.01715094 C58.0109049,1.01715094 58.9204333,1.92764285 58.9204333,3.05099484 L58.9204333,15.2540589 C58.9204333,16.3774109 58.0109049,17.2883606 56.8887417,17.2883606 L16.2539915,17.2883606 C15.1318282,17.2883606 14.2222998,16.3774109 14.2222998,15.2540589 L14.2222998,3.05099484 C14.2222998,1.92764285 15.1318282,1.01715094 16.2539915,1.01715094 Z" id="Path" fill="#FF5364"></path>
                    <path d="M54.8570499,25.4237366 C54.5877124,25.4237366 54.3293495,25.3166198 54.1391213,25.1257324 L52.825358,23.8110352 L51.512052,25.1257324 C51.1133045,25.5111694 50.4795155,25.5056763 50.0876272,25.1133728 C49.6957387,24.7210693 49.6902514,24.0866088 50.0752806,23.6878968 L52.1069724,21.6540527 C52.5038907,21.2567139 53.1468254,21.2567139 53.5437438,21.6540527 L55.5754356,23.6878968 C55.8658079,23.9785767 55.952691,24.4157409 55.7953869,24.7961426 C55.6380828,25.1760865 55.2681439,25.4237366 54.8570499,25.4237366 Z" id="Path" fill="#F0C419"></path>
                    <path d="M52.825358,34.5762634 C52.2642765,34.5762634 51.8097408,34.1207885 51.8097408,33.5591126 L51.8097408,22.3727416 C51.8097408,21.8110657 52.2642765,21.3560486 52.825358,21.3560486 C53.3864397,21.3560486 53.8414326,21.8110657 53.8414326,22.3727416 L53.8414326,33.5591126 C53.8414326,34.1207885 53.3864397,34.5762634 52.825358,34.5762634 Z" id="Path" fill="#F0C419"></path>
                    <path d="M8.12676711,4.06768805 C7.85742965,4.06768805 7.59906678,3.96057129 7.40883861,3.76968387 L6.09507531,2.4549866 L4.78176925,3.76968387 C4.38302173,4.15512082 3.74968998,4.14962766 3.35780168,3.75732422 C2.96591338,3.36502078 2.96042591,2.73101812 3.34545511,2.3318482 L5.37714692,0.29800418 C5.77360795,-0.0988769531 6.41654266,-0.0988769531 6.81346106,0.29800418 L8.84515287,2.3318482 C9.13552512,2.62252805 9.22240823,3.06015012 9.06510417,3.44009402 C8.90825735,3.82003781 8.5378612,4.06768805 8.12676711,4.06768805 Z" id="Path" fill="#FF5364"></path>
                    <path d="M6.09507531,13.2202148 C5.53399373,13.2202148 5.07945809,12.7651978 5.07945809,12.2035218 L5.07945809,1.01715094 C5.07945809,0.455474883 5.53399373,0 6.09507531,0 C6.65615699,0 7.11114989,0.455474883 7.11114989,1.01715094 L7.11114989,12.2035218 C7.11114989,12.7651978 6.65615699,13.2202148 6.09507531,13.2202148 Z" id="Path" fill="#FF5364"></path>
                    <polygon id="Path" fill="#F3D55B" points="36.5713666 5.08483887 38.3959109 7.46749875 41.6508247 8.19259641 39.5235615 10.3903198 39.7105887 13.2202148 36.5713666 12.1961975 33.4326017 13.2202148 33.6191716 10.3903198 31.4919085 8.19259641 34.7468222 7.46749875"></polygon>
                    <g id="Group" transform="translate(3.980159, 3.984375)" fill="#FFFFFF">
                        <path d="M25.4800579,2.11715695 L14.3055246,2.11715695 C13.7444429,2.11715695 13.2899073,1.66213992 13.2899073,1.10046387 C13.2899073,0.538787813 13.7444429,0.0833130469 14.3055246,0.0833130469 L25.4800579,0.0833130469 C26.0411396,0.0833130469 26.4961325,0.538787813 26.4961325,1.10046387 C26.4961325,1.66213992 26.0411396,2.11715695 25.4800579,2.11715695 Z" id="Path"></path>
                        <path d="M25.4800579,10.2529908 L14.3055246,10.2529908 C13.7444429,10.2529908 13.2899073,9.7975159 13.2899073,9.23583984 C13.2899073,8.67416379 13.7444429,8.21914676 14.3055246,8.21914676 L25.4800579,8.21914676 C26.0411396,8.21914676 26.4961325,8.67416379 26.4961325,9.23583984 C26.4961325,9.7975159 26.0411396,10.2529908 25.4800579,10.2529908 Z" id="Path"></path>
                        <path d="M22.4327489,6.18530273 L14.3055246,6.18530273 C13.7444429,6.18530273 13.2899073,5.72982785 13.2899073,5.1681518 C13.2899073,4.60647586 13.7444429,4.15100098 14.3055246,4.15100098 L22.4327489,4.15100098 C22.9933734,4.15100098 23.4483663,4.60647586 23.4483663,5.1681518 C23.4483663,5.72982785 22.9933734,6.18530273 22.4327489,6.18530273 Z" id="Path"></path>
                        <path d="M50.8768911,2.11715695 L39.7023577,2.11715695 C39.141276,2.11715695 38.6862831,1.66213992 38.6862831,1.10046387 C38.6862831,0.538787813 39.141276,0.0833130469 39.7023577,0.0833130469 L50.8768911,0.0833130469 C51.4379728,0.0833130469 51.8929656,0.538787813 51.8929656,1.10046387 C51.8929656,1.66213992 51.4379728,2.11715695 50.8768911,2.11715695 Z" id="Path"></path>
                        <path d="M50.8768911,10.2529908 L39.7023577,10.2529908 C39.141276,10.2529908 38.6862831,9.7975159 38.6862831,9.23583984 C38.6862831,8.67416379 39.141276,8.21914676 39.7023577,8.21914676 L50.8768911,8.21914676 C51.4379728,8.21914676 51.8929656,8.67416379 51.8929656,9.23583984 C51.8929656,9.7975159 51.4379728,10.2529908 50.8768911,10.2529908 Z" id="Path"></path>
                        <path d="M50.8768911,6.18530273 L42.750124,6.18530273 C42.1890423,6.18530273 41.7340494,5.72982785 41.7340494,5.1681518 C41.7340494,4.60647586 42.1890423,4.15100098 42.750124,4.15100098 L50.8768911,4.15100098 C51.4379728,4.15100098 51.8929656,4.60647586 51.8929656,5.1681518 C51.8929656,5.72982785 51.4379728,6.18530273 50.8768911,6.18530273 Z" id="Path"></path>
                        <path d="M1.09929936,22.4565124 L7.19437466,22.4565124 C7.75545635,22.4565124 8.21044925,22.9115296 8.21044925,23.4732056 L8.21044925,29.5747376 C8.21044925,30.1364135 7.75545635,30.5918884 7.19437466,30.5918884 L1.09929936,30.5918884 C0.538217667,30.5918884 0.0832248849,30.1364135 0.0832248849,29.5747376 L0.0832248849,23.4732056 C0.0832248849,22.9115296 0.538217667,22.4565124 1.09929936,22.4565124 Z" id="Path"></path>
                        <path d="M1.09929936,43.8121032 L19.3849826,43.8121032 C19.9460643,43.8121032 20.4005999,44.2675781 20.4005999,44.8292542 L20.4005999,46.8630982 C20.4005999,47.4247741 19.9460643,47.880249 19.3849826,47.880249 L1.09929936,47.880249 C0.538217667,47.880249 0.0832248849,47.4247741 0.0832248849,46.8630982 L0.0832248849,44.8292542 C0.0832248849,44.2675781 0.538217667,43.8121032 1.09929936,43.8121032 Z" id="Path"></path>
                        <path d="M35.6389741,47.880249 L25.4800579,47.880249 C24.9189764,47.880249 24.4644407,47.4247741 24.4644407,46.8630982 L24.4644407,44.8292542 C24.4644407,44.2675781 24.9189764,43.8121032 25.4800579,43.8121032 L35.6389741,43.8121032 C36.2000558,43.8121032 36.6545915,44.2675781 36.6545915,44.8292542 L36.6545915,46.8630982 C36.6545915,47.4247741 36.2000558,47.880249 35.6389741,47.880249 Z" id="Path"></path>
                    </g>
                    <path d="M40.6347502,27.4575806 L16.2539915,27.4575806 C15.6929099,27.4575806 15.237917,27.0021057 15.237917,26.4408874 C15.237917,25.8792115 15.6929099,25.4237366 16.2539915,25.4237366 L40.6347502,25.4237366 C41.1958318,25.4237366 41.6508247,25.8792115 41.6508247,26.4408874 C41.6508247,27.0021057 41.1958318,27.4575806 40.6347502,27.4575806 Z" id="Path" fill="#D25627"></path>
                    <path d="M40.6347502,31.5252686 L16.2539915,31.5252686 C15.6929099,31.5252686 15.237917,31.0702514 15.237917,30.5085755 C15.237917,29.9468994 15.6929099,29.4914245 16.2539915,29.4914245 L40.6347502,29.4914245 C41.1958318,29.4914245 41.6508247,29.9468994 41.6508247,30.5085755 C41.6508247,31.0702514 41.1958318,31.5252686 40.6347502,31.5252686 Z" id="Path" fill="#D25627"></path>
                    <path d="M40.6347502,35.5934143 L16.2539915,35.5934143 C15.6929099,35.5934143 15.237917,35.1379395 15.237917,34.5762634 C15.237917,34.0145873 15.6929099,33.5591126 16.2539915,33.5591126 L40.6347502,33.5591126 C41.1958318,33.5591126 41.6508247,34.0145873 41.6508247,34.5762634 C41.6508247,35.1379395 41.1958318,35.5934143 40.6347502,35.5934143 Z" id="Path" fill="#D25627"></path>
                    <path d="M24.3807586,56.9490052 L4.06338362,56.9490052 C3.50230193,56.9490052 3.04776628,56.493988 3.04776628,55.932312 C3.04776628,55.370636 3.50230193,54.9151611 4.06338362,54.9151611 L24.3807586,54.9151611 C24.9418403,54.9151611 25.3968332,55.370636 25.3968332,55.932312 C25.3968332,56.493988 24.9418403,56.9490052 24.3807586,56.9490052 Z" id="Path" fill="#D25627"></path>
                    <path d="M40.6347502,56.9490052 L28.4445995,56.9490052 C27.8835178,56.9490052 27.428525,56.493988 27.428525,55.932312 C27.428525,55.370636 27.8835178,54.9151611 28.4445995,54.9151611 L40.6347502,54.9151611 C41.1958318,54.9151611 41.6508247,55.370636 41.6508247,55.932312 C41.6508247,56.493988 41.1958318,56.9490052 40.6347502,56.9490052 Z" id="Path" fill="#D25627"></path>
                </g>
            </g>
        </g>
    </g>
</svg>