<?xml version="1.0" encoding="UTF-8"?>
<svg width="100px" height="100px" viewBox="0 0 100 100" version="1.1" xmlns="http://www.w3.org/2000/svg" xmlns:xlink="http://www.w3.org/1999/xlink">
    <!-- Generator: Sketch 52.5 (67469) - http://www.bohemiancoding.com/sketch -->
    <title>Group 7</title>
    <desc>Created with Sketch.</desc>
    <g id="Page-1" stroke="none" stroke-width="1" fill="none" fill-rule="evenodd">
        <g id="Partner-With-Us" transform="translate(-750.000000, -1170.000000)">
            <rect id="Rectangle" fill="#F9F9F9" fill-rule="nonzero" opacity="0" x="0" y="981" width="1920" height="470"></rect>
            <g id="Group-7" transform="translate(750.000000, 1170.000000)">
                <circle id="Oval-Copy-9" fill="#D8D8D8" fill-rule="nonzero" opacity="0.329999983" cx="50" cy="50" r="50"></circle>
                <g id="983763" transform="translate(50.500000, 50.000000) scale(-1, 1) translate(-50.500000, -50.000000) translate(11.000000, 20.000000)">
                    <path d="M30,58.125 L11.25,58.125 L11.25,39.0675 C11.25,38.7195825 11.5298437,38.4375 11.875,38.4375 L29.375,38.4375 C29.7201563,38.4375 30,38.7195825 30,39.0675 L30,58.125 Z" id="Path" fill="#FF5A51"></path>
                    <path d="M67.5,57.1875 L48.75,57.1875 L48.75,29.6706081 C48.75,29.3347804 49.0298437,29.0625 49.375,29.0625 L66.875,29.0625 C67.2201563,29.0625 67.5,29.3347804 67.5,29.6706081 L67.5,57.1875 Z" id="Path" fill="#FFBD2A"></path>
                    <path d="M48.75,58.125 L30,58.125 L30,22.1848404 C30,21.8411529 30.2798437,21.5625 30.625,21.5625 L48.125,21.5625 C48.4701563,21.5625 48.75,21.8411529 48.75,22.1848404 L48.75,58.125 Z" id="Path" fill="#BEC950"></path>
                    <path d="M30,58.125 L25.3125,58.125 L25.3125,38.4375 L29.375,38.4375 C29.7201563,38.4375 30,38.7195825 30,39.0675 L30,58.125 Z" id="Path" fill="#E75955"></path>
                    <path d="M67.5,57.1875 L62.8125,57.1875 L62.8125,29.0625 L66.875,29.0625 C67.2201563,29.0625 67.5,29.3347804 67.5,29.6706081 L67.5,57.1875 Z" id="Path" fill="#FF993B"></path>
                    <path d="M48.75,58.125 L44.0625,58.125 L44.0625,21.5625 L48.125,21.5625 C48.4701563,21.5625 48.75,21.8411529 48.75,22.1848404 L48.75,58.125 Z" id="Path" fill="#58C357"></path>
                    <g id="Group" transform="translate(29.062500, 0.937500)" fill="#FF993B">
                        <path d="M10.78125,10.0761388 C10.1340625,10.0761388 9.609375,10.5828893 9.609375,11.2082892 L9.609375,16.5671345 C9.609375,17.1925344 10.1340625,17.699285 10.78125,17.699285 C11.4284375,17.699285 11.953125,17.1925344 11.953125,16.5671345 L11.953125,11.2082892 C11.953125,10.5828893 11.4284375,10.0761388 10.78125,10.0761388 Z" id="Path"></path>
                        <path d="M9.8275,1.20762712 C9.8275,0.582227225 9.3028125,0.0754766949 8.655625,0.0754766949 L4.64609375,0.0754766949 C2.12734375,0.0754766949 0.07828125,2.05507945 0.07828125,4.48844809 L0.07828125,5.01270922 C0.07828125,8.11676377 2.6921875,10.642214 5.90515625,10.642214 L8.655625,10.642214 C9.3028125,10.642214 9.8275,10.1354635 9.8275,9.51006356 L9.8275,1.20762712 Z M7.48375,8.37791314 L5.90515625,8.37791314 C3.98453125,8.37791314 2.42203125,6.86822828 2.42203125,5.01270922 L2.42203125,4.48844809 C2.42203125,3.30361494 3.41984375,2.33977754 4.64609375,2.33977754 L7.48375,2.33977754 L7.48375,8.37791314 Z" id="Shape" fill-rule="nonzero"></path>
                        <path d="M16.9165625,0.0754766949 L12.9070312,0.0754766949 C12.2598437,0.0754766949 11.7351562,0.582227225 11.7351562,1.20762712 L11.7351562,9.51006356 C11.7351562,10.1354635 12.2598437,10.642214 12.9070312,10.642214 L15.6575,10.642214 C18.8704687,10.642214 21.484375,8.11691472 21.484375,5.01270922 L21.484375,4.48844809 C21.484375,2.05507945 19.4353125,0.0754766949 16.9165625,0.0754766949 Z M19.140625,5.01270922 C19.140625,6.86822828 17.578125,8.37791314 15.6575,8.37791314 L14.0789062,8.37791314 L14.0789062,2.33977754 L16.9165625,2.33977754 C18.1429687,2.33977754 19.140625,3.30376589 19.140625,4.48844809 L19.140625,5.01270922 Z" id="Shape" fill-rule="nonzero"></path>
                    </g>
                    <path d="M44.4140625,21.5625 L35.2734375,21.5625 C34.432043,21.5625 33.75,20.8629688 33.75,20 L33.75,19.375 C33.75,17.9942188 34.8412383,16.875 36.1875,16.875 L43.5,16.875 C44.8462617,16.875 45.9375,17.9942188 45.9375,19.375 L45.9375,20 C45.9375,20.8629688 45.255457,21.5625 44.4140625,21.5625 Z" id="Path" fill="#FFD681"></path>
                    <path d="M43.3288043,16.875 L38.4375,16.875 C39.8783152,16.875 41.0461957,17.994375 41.0461957,19.375 L41.0461957,20 C41.0461957,20.8629688 40.31625,21.5625 39.4157609,21.5625 L44.3070652,21.5625 C45.2075543,21.5625 45.9375,20.8629688 45.9375,20 L45.9375,19.375 C45.9375,17.994375 44.7696196,16.875 43.3288043,16.875 Z" id="Path" fill="#FFBD2A"></path>
                    <path d="M39.84375,12.1875 C36.9960938,12.1875 34.6875,9.93662109 34.6875,7.16015625 L34.6875,0.45703125 C34.6875,0.204597656 34.8973437,0 35.15625,0 L44.53125,0 C44.7901562,0 45,0.204597656 45,0.45703125 L45,7.16015625 C45,9.93662109 42.6914062,12.1875 39.84375,12.1875 Z" id="Path" fill="#FFD681"></path>
                    <path d="M39.375,0 L39.375,7.16015625 C39.375,9.11350781 38.2315625,10.8054375 36.5625,11.6376914 C37.2659375,11.9883867 38.0620313,12.1875 38.90625,12.1875 C41.7539062,12.1875 44.0625,9.93662109 44.0625,7.16015625 L44.0625,0.45703125 C44.0625,0.204597656 43.8526562,0 43.59375,0 L39.375,0 Z" id="Path" fill="#FFBD2A"></path>
                    <path d="M76.4428711,60 L2.30712891,60 C1.03297852,60 0,58.950625 0,57.65625 C0,56.361875 1.03297852,55.3125 2.30712891,55.3125 L76.4428711,55.3125 C77.7170215,55.3125 78.75,56.361875 78.75,57.65625 C78.75,58.950625 77.7170215,60 76.4428711,60 Z" id="Path" fill="#444455"></path>
                    <path d="M76.5625,55.3125 L72.1875,55.3125 C73.3955833,55.3125 74.375,56.361875 74.375,57.65625 C74.375,58.950625 73.3955833,60 72.1875,60 L76.5625,60 C77.7705833,60 78.75,58.950625 78.75,57.65625 C78.75,56.361875 77.7705833,55.3125 76.5625,55.3125 Z" id="Path" fill="#30303A"></path>
                </g>
            </g>
        </g>
    </g>
</svg>