<?xml version="1.0" encoding="UTF-8"?>
<svg width="100px" height="100px" viewBox="0 0 100 100" version="1.1" xmlns="http://www.w3.org/2000/svg" xmlns:xlink="http://www.w3.org/1999/xlink">
    <!-- Generator: Sketch 52.5 (67469) - http://www.bohemiancoding.com/sketch -->
    <title>Group 6</title>
    <desc>Created with Sketch.</desc>
    <g id="Page-1" stroke="none" stroke-width="1" fill="none" fill-rule="evenodd">
        <g id="Partner-With-Us" transform="translate(-430.000000, -1170.000000)">
            <rect id="Rectangle" fill="#F9F9F9" fill-rule="nonzero" opacity="0" x="0" y="981" width="1920" height="470"></rect>
            <g id="Group-6" transform="translate(430.000000, 1170.000000)">
                <circle id="Oval" fill="#D8D8D8" fill-rule="nonzero" opacity="0.329999983" cx="50" cy="50" r="50"></circle>
                <g id="Group-3" transform="translate(26.000000, 19.000000)">
                    <g id="145859">
                        <g id="Group" transform="translate(0.000000, 6.206897)">
                            <rect id="Rectangle" fill="#FDCC9B" x="17.3997585" y="38.2767918" width="8.87530193" height="10.1312593"></rect>
                            <path d="M17.3997585,39.4701528 C17.3997585,39.4701528 21.1331522,41.8931864 26.2750604,41.3322021 L26.2750604,38.2767918 L17.3997585,38.2767918 L17.3997585,39.4701528 Z" id="Path" fill="#FCBC85"></path>
                            <ellipse id="Oval" fill="#FCBC85" cx="4.60205314" cy="22.5673854" rx="4.33061594" ry="5.03562636"></ellipse>
                            <ellipse id="Oval" fill="#FCBC85" cx="39.0727657" cy="22.5673854" rx="4.33061594" ry="5.03562636"></ellipse>
                            <path d="M39.0555556,12.9491052 C39.0555556,5.53168049 33.7303744,0.104626801 21.8375604,0.104626801 C9.94474638,0.104626801 4.61956522,5.53198821 4.61956522,12.9491052 C4.61956522,20.3665299 3.37711353,39.9049694 21.8375604,39.9049694 C40.2980072,39.9049694 39.0555556,20.3668376 39.0555556,12.9491052 Z" id="Path" fill="#FDCC9B"></path>
                            <g transform="translate(10.265700, 13.539939)">
                                <g transform="translate(1.207729, 5.539066)" id="Oval">
                                    <ellipse fill="#3B2519" cx="1.977657" cy="2.28271061" rx="1.8638285" ry="2.0805347"></ellipse>
                                    <ellipse fill="#FFFFFF" cx="1.165157" cy="1.36414884" rx="1" ry="1"></ellipse>
                                </g>
                                <path d="M0.203804348,2.66552161 C1.08514493,3.1148014 2.50030193,1.13920122 5.7397343,2.85785028 C6.33031401,3.17111523 6.68266908,0.178173287 3.21044686,0.178173287 C0.203804348,0.178173287 -0.328804348,2.3944151 0.203804348,2.66552161 Z" id="Path" fill="#86461B"></path>
                                <g transform="translate(18.115942, 5.539066)" id="Oval">
                                    <ellipse fill="#3B2519" cx="2.07246377" cy="2.28271061" rx="1.8638285" ry="2.0805347"></ellipse>
                                    <ellipse fill="#FFFFFF" cx="1.25996377" cy="1.36414884" rx="1" ry="1"></ellipse>
                                </g>
                                <path d="M22.9399155,2.66552161 C22.0585749,3.1148014 20.6434179,1.13920122 17.4039855,2.85785028 C16.8134058,3.17111523 16.4610507,0.178173287 19.9335749,0.178173287 C22.9399155,0.178173287 23.4722222,2.3944151 22.9399155,2.66552161 Z" id="Path" fill="#86461B"></path>
                            </g>
                            <path d="M21.8375604,28.6794369 C19.9957729,28.6794369 18.8864734,27.2771301 18.8864734,27.9556656 C18.8864734,28.6338935 19.4190821,29.9229572 21.8375604,29.9229572 C24.2560386,29.9229572 24.7886473,28.6338935 24.7886473,27.9556656 C24.7886473,27.2774378 23.6790459,28.6794369 21.8375604,28.6794369 Z" id="Path" fill="#FCBC85"></path>
                            <path d="M21.8375604,34.9173483 C21.2004831,34.9173483 20.8167271,34.4323723 20.8167271,34.6671672 C20.8167271,34.901962 21.0009058,35.3478568 21.8375604,35.3478568 C22.674215,35.3478568 22.8580918,34.901962 22.8580918,34.6671672 C22.8580918,34.4323723 22.4743357,34.9173483 21.8375604,34.9173483 Z" id="Path" fill="#FCBC85"></path>
                            <path d="M21.8375604,33.188852 C18.9184783,33.188852 17.1597222,31.9773352 17.1597222,32.2844457 C17.1597222,32.5912484 18.0039251,33.7996879 21.8375604,33.7996879 C25.6711957,33.7996879 26.5153986,32.5912484 26.5153986,32.2844457 C26.5150966,31.9770275 24.7566425,33.188852 21.8375604,33.188852 Z" id="Path" fill="#F7945E"></path>
                        </g>
                        <path d="M21.7391304,48.6206897 L21.7391304,60 L0,60 C0,55.3942642 11.4505699,48.6206897 21.7391304,48.6206897 Z" id="Path" fill="#D58E64"></path>
                        <path d="M21.7391304,48.6206897 L21.7391304,60 L43.4782609,60 C43.4782609,55.3942642 32.0272263,48.6206897 21.7391304,48.6206897 Z" id="Path" fill="#D58E64"></path>
                        <path d="M22.1389207,48.6206897 C19.9473546,48.6206897 17.7033616,48.9422159 15.5279503,49.49121 C15.5425811,49.5113654 17.9411115,52.7586207 22.1389207,52.7586207 C26.0264358,52.7586207 28.6108988,49.9778184 28.9855072,49.5497566 C26.7366373,48.9639709 24.4094319,48.6206897 22.1389207,48.6206897 Z" id="Path" fill="#BF805A"></path>
                        <path d="M17.5983437,49.2751704 C17.5983437,49.2751704 18.9609154,50.6896552 22.2565703,50.6896552 C25.5522252,50.6896552 26.9151139,49.2751704 26.9151139,49.2751704 C26.9151139,49.2751704 22.0819304,47.8025888 17.5983437,49.2751704 Z" id="Path" fill="#FDCC9B"></path>
                        <path d="M21.7391304,42.5931963 L21.7391304,46.5517241 C12.3574953,46.5517241 9.26052034,41.8086728 8.34303387,40.4866537 C7.66285997,39.5057821 12.7569868,43.9340394 17.2503493,43.9340394 C19.2255107,43.9340394 19.1357168,42.5931963 21.7391304,42.5931963 Z" id="Path" fill="#86461B"></path>
                        <path d="M21.7391304,42.5931963 L21.7391304,46.5517241 C31.121071,46.5517241 34.218046,41.8086728 35.135227,40.4866537 C35.8154009,39.5057821 30.7212741,43.9340394 26.2279116,43.9340394 C24.2530556,43.9340394 24.3428495,42.5931963 21.7391304,42.5931963 Z" id="Path" fill="#86461B"></path>
                        <path d="M21.7391304,14.7457812 L21.7391304,0 C6.77291172,0 3.97748194,5.75460789 3.27847589,16.5440771 C2.57946985,27.3338522 4.15758298,31.0482095 5.20312009,31.0344447 C6.24865719,31.020374 5.68665871,18.6644695 7.12241474,16.0044966 C9.74339022,11.1491896 14.428395,14.7457812 21.7391304,14.7457812 Z" id="Path" fill="#86461B"></path>
                        <path d="M21.7391304,14.7457812 L21.7391304,0 C36.7053491,0 39.5007789,5.75460789 40.199785,16.5440771 C40.898791,27.3338522 39.3206779,31.0482095 38.2751408,31.0344447 C37.2296037,31.020374 37.7916022,18.6644695 36.3558461,16.0044966 C33.7351678,11.1491896 29.0498659,14.7457812 21.7391304,14.7457812 Z" id="Path" fill="#86461B"></path>
                        <path d="M12.4217409,50.6896552 C5.54558042,52.9040426 0,56.9470263 0,60 L12.4223602,60 L12.4223602,50.6896552 L12.4217409,50.6896552 Z" id="Path" fill="#744A25"></path>
                        <path d="M13.4575569,60 L13.4575569,49.6551724 C13.4575569,49.6551724 11.7079631,50.3299349 11.1023815,50.644518 L9.31677019,59.999694 L13.4575569,59.999694 L13.4575569,60 Z" id="Path" fill="#573514"></path>
                        <path d="M31.0565199,50.6896552 C37.9326805,52.9040426 43.4782609,56.9470263 43.4782609,60 L31.0559006,60 L31.0559006,50.6896552 L31.0565199,50.6896552 Z" id="Path" fill="#744A25"></path>
                        <path d="M31.0559006,60 L31.0559006,49.6551724 C31.0559006,49.6551724 32.8054944,50.3299349 33.4110761,50.644518 L35.1966874,59.999694 L31.0559006,59.999694 L31.0559006,60 Z" id="Path" fill="#573514"></path>
                    </g>
                    <g id="1211694" transform="translate(31.000000, 46.000000)">
                        <path d="M17,8.5 C17,13.1943261 13.1943966,17 8.50015749,17 C3.8056034,17 0,13.1943261 0,8.5 C0,3.80535892 3.8056034,0 8.50015749,0 C13.1943966,0 17,3.80535892 17,8.5 Z" id="Path" fill="#5BB68D"></path>
                        <polygon id="Path" fill="#EFEDEE" points="7.56904885 13.3571429 3.64285714 9.05809869 5.61756541 6.89586142 7.56904885 9.0326684 11.3824346 4.85714286 13.3571429 7.01938013"></polygon>
                    </g>
                </g>
            </g>
        </g>
    </g>
</svg>