<?xml version="1.0" encoding="UTF-8"?>
<svg width="100px" height="100px" viewBox="0 0 100 100" version="1.1" xmlns="http://www.w3.org/2000/svg" xmlns:xlink="http://www.w3.org/1999/xlink">
    <!-- Generator: Sketch 52.5 (67469) - http://www.bohemiancoding.com/sketch -->
    <title>Group 9</title>
    <desc>Created with Sketch.</desc>
    <g id="Page-1" stroke="none" stroke-width="1" fill="none" fill-rule="evenodd">
        <g id="Partner-With-Us" transform="translate(-1070.000000, -1170.000000)">
            <rect id="Rectangle" fill="#F9F9F9" fill-rule="nonzero" opacity="0" x="0" y="981" width="1920" height="470"></rect>
            <g id="Group-9" transform="translate(1070.000000, 1170.000000)">
                <circle id="Oval-Copy-10" fill="#D8D8D8" fill-rule="nonzero" opacity="0.329999983" cx="50" cy="50" r="50"></circle>
                <g id="148933" transform="translate(22.000000, 21.000000)">
                    <circle id="Oval" fill="#E0E1E2" cx="28.578" cy="29.157" r="26"></circle>
                    <circle id="Oval" fill="#FFFFFF" cx="28.578" cy="29.157" r="15"></circle>
                    <path d="M12.578,57.157 C12.322,57.157 12.066,57.059 11.871,56.864 C11.48,56.473 11.48,55.841 11.871,55.45 L15.804,51.517 C16.195,51.126 16.827,51.126 17.218,51.517 C17.609,51.908 17.609,52.54 17.218,52.931 L13.285,56.864 C13.09,57.059 12.834,57.157 12.578,57.157 Z" id="Path" fill="#424A60"></path>
                    <path d="M44.578,57.157 C44.322,57.157 44.066,57.059 43.871,56.864 L39.908,52.901 C39.517,52.51 39.517,51.878 39.908,51.487 C40.299,51.096 40.931,51.096 41.322,51.487 L45.285,55.45 C45.676,55.841 45.676,56.473 45.285,56.864 C45.09,57.059 44.834,57.157 44.578,57.157 Z" id="Path" fill="#424A60"></path>
                    <path d="M46.672,11.371 C46.416,11.371 46.16,11.273 45.965,11.078 C45.574,10.687 45.574,10.055 45.965,9.664 L48.965,6.664 C49.356,6.273 49.988,6.273 50.379,6.664 C50.77,7.055 50.77,7.687 50.379,8.078 L47.379,11.078 C47.183,11.274 46.927,11.371 46.672,11.371 Z" id="Path" fill="#C7CAC7"></path>
                    <path d="M10.485,11.371 C10.229,11.371 9.973,11.273 9.778,11.078 L6.778,8.078 C6.387,7.687 6.387,7.055 6.778,6.664 C7.169,6.273 7.801,6.273 8.192,6.664 L11.192,9.664 C11.583,10.055 11.583,10.687 11.192,11.078 C10.997,11.274 10.741,11.371 10.485,11.371 Z" id="Path" fill="#C7CAC7"></path>
                    <path d="M28.578,57.157 C13.139,57.157 0.578,44.596 0.578,29.157 C0.578,13.718 13.139,1.157 28.578,1.157 C44.017,1.157 56.578,13.718 56.578,29.157 C56.578,44.596 44.018,57.157 28.578,57.157 Z M28.578,5.157 C15.344,5.157 4.578,15.924 4.578,29.157 C4.578,42.39 15.344,53.157 28.578,53.157 C41.812,53.157 52.578,42.39 52.578,29.157 C52.578,15.924 41.812,5.157 28.578,5.157 Z" id="Shape" fill="#26B99A" fill-rule="nonzero"></path>
                    <g id="Group" transform="translate(5.000000, 6.000000)" fill="#26B99A">
                        <path d="M23.578,0.036 C23.026,0.036 22.578,0.483 22.578,1.036 L22.578,2.036 C22.578,2.589 23.026,3.036 23.578,3.036 C24.13,3.036 24.578,2.589 24.578,2.036 L24.578,1.036 C24.578,0.483 24.131,0.036 23.578,0.036 Z" id="Path"></path>
                        <path d="M23.578,43.036 C23.026,43.036 22.578,43.483 22.578,44.036 L22.578,45.036 C22.578,45.589 23.026,46.036 23.578,46.036 C24.13,46.036 24.578,45.589 24.578,45.036 L24.578,44.036 C24.578,43.483 24.131,43.036 23.578,43.036 Z" id="Path"></path>
                        <path d="M45.578,22.036 L44.578,22.036 C44.026,22.036 43.578,22.483 43.578,23.036 C43.578,23.589 44.026,24.036 44.578,24.036 L45.578,24.036 C46.13,24.036 46.578,23.589 46.578,23.036 C46.578,22.483 46.131,22.036 45.578,22.036 Z" id="Path"></path>
                        <path d="M2.578,22.036 L1.578,22.036 C1.026,22.036 0.578,22.483 0.578,23.036 C0.578,23.589 1.026,24.036 1.578,24.036 L2.578,24.036 C3.13,24.036 3.578,23.589 3.578,23.036 C3.578,22.483 3.131,22.036 2.578,22.036 Z" id="Path"></path>
                        <path d="M38.427,6.772 L37.72,7.479 C37.329,7.87 37.329,8.502 37.72,8.893 C37.915,9.088 38.171,9.186 38.427,9.186 C38.683,9.186 38.939,9.088 39.134,8.893 L39.841,8.186 C40.232,7.795 40.232,7.163 39.841,6.772 C39.45,6.381 38.818,6.381 38.427,6.772 Z" id="Path"></path>
                        <path d="M8.022,37.178 L7.315,37.885 C6.924,38.276 6.924,38.908 7.315,39.299 C7.51,39.494 7.766,39.592 8.022,39.592 C8.278,39.592 8.534,39.494 8.729,39.299 L9.436,38.592 C9.827,38.201 9.827,37.569 9.436,37.178 C9.045,36.787 8.413,36.788 8.022,37.178 Z" id="Path"></path>
                        <path d="M39.134,37.178 C38.743,36.787 38.111,36.787 37.72,37.178 C37.329,37.569 37.329,38.201 37.72,38.592 L38.427,39.299 C38.622,39.494 38.878,39.592 39.134,39.592 C39.39,39.592 39.646,39.494 39.841,39.299 C40.232,38.908 40.232,38.276 39.841,37.885 L39.134,37.178 Z" id="Path"></path>
                        <path d="M8.729,6.772 C8.338,6.381 7.706,6.381 7.315,6.772 C6.924,7.163 6.924,7.795 7.315,8.186 L8.022,8.893 C8.217,9.088 8.473,9.186 8.729,9.186 C8.985,9.186 9.241,9.088 9.436,8.893 C9.827,8.502 9.827,7.87 9.436,7.479 L8.729,6.772 Z" id="Path"></path>
                    </g>
                    <path d="M39.578,30.157 L31.578,30.157 C31.026,30.157 30.578,29.71 30.578,29.157 C30.578,28.604 31.026,28.157 31.578,28.157 L39.578,28.157 C40.13,28.157 40.578,28.604 40.578,29.157 C40.578,29.71 40.131,30.157 39.578,30.157 Z" id="Path" fill="#424A60"></path>
                    <path d="M28.578,27.157 C28.026,27.157 27.578,26.71 27.578,26.157 L27.578,15.157 C27.578,14.604 28.026,14.157 28.578,14.157 C29.13,14.157 29.578,14.604 29.578,15.157 L29.578,26.157 C29.578,26.709 29.131,27.157 28.578,27.157 Z" id="Path" fill="#424A60"></path>
                    <path d="M28.578,33.157 C26.372,33.157 24.578,31.363 24.578,29.157 C24.578,26.951 26.372,25.157 28.578,25.157 C30.784,25.157 32.578,26.951 32.578,29.157 C32.578,31.363 30.784,33.157 28.578,33.157 Z M28.578,27.157 C27.475,27.157 26.578,28.054 26.578,29.157 C26.578,30.26 27.475,31.157 28.578,31.157 C29.681,31.157 30.578,30.26 30.578,29.157 C30.578,28.054 29.681,27.157 28.578,27.157 Z" id="Shape" fill="#424A60" fill-rule="nonzero"></path>
                    <path d="M54.493,2.086 C57.274,4.867 57.274,9.376 54.493,12.157 L44.421,2.086 C47.203,-0.695 51.711,-0.695 54.493,2.086 Z" id="Path" fill="#E7ECED"></path>
                    <path d="M2.664,2.086 C-0.117,4.867 -0.117,9.376 2.664,12.157 L12.735,2.086 C9.954,-0.695 5.445,-0.695 2.664,2.086 Z" id="Path" fill="#E7ECED"></path>
                </g>
            </g>
        </g>
    </g>
</svg>