<?xml version="1.0" encoding="UTF-8"?>
<svg width="100px" height="100px" viewBox="0 0 100 100" version="1.1" xmlns="http://www.w3.org/2000/svg" xmlns:xlink="http://www.w3.org/1999/xlink">
    <!-- Generator: Sketch 52.5 (67469) - http://www.bohemiancoding.com/sketch -->
    <title>Group 10</title>
    <desc>Created with Sketch.</desc>
    <g id="Page-1" stroke="none" stroke-width="1" fill="none" fill-rule="evenodd">
        <g id="Partner-With-Us" transform="translate(-1391.000000, -1170.000000)">
            <rect id="Rectangle" fill="#F9F9F9" fill-rule="nonzero" opacity="0" x="0" y="981" width="1920" height="470"></rect>
            <g id="Group-10" transform="translate(1391.000000, 1170.000000)">
                <circle id="Oval-Copy-11" fill="#D8D8D8" fill-rule="nonzero" opacity="0.329999983" cx="50" cy="50" r="50"></circle>
                <g id="1152850" transform="translate(20.000000, 20.000000)">
                    <path d="M9.37827742,46.09375 L6.31358311,46.09375 C2.83221568,46.09375 0,48.9884603 0,52.5466465 L0,57.2453532 C0,58.2145213 0.768520739,59 1.71676529,59 L13.9755424,59 C14.923787,59 15.6923077,58.2145213 15.6923077,57.2453532 L15.6923077,52.5466465 C15.6923077,48.9884603 12.860092,46.09375 9.37827742,46.09375 Z" id="Path" fill="#FF6D15"></path>
                    <path d="M22.3015343,36.875 L19.2369273,36.875 C15.7556589,36.875 12.9230769,39.7469756 12.9230769,43.276659 L12.9230769,57.2594087 C12.9230769,58.2208134 13.6920228,59 14.6397933,59 L26.8986682,59 C27.8464387,59 28.6153846,58.2208134 28.6153846,57.2594087 L28.6153846,43.276659 C28.6153846,39.7469756 25.7828026,36.875 22.3015343,36.875 Z" id="Path" fill="#FFD12B"></path>
                    <path d="M34.3016215,27.65625 L31.23684,27.65625 C27.7553733,27.65625 24.9230769,30.518825 24.9230769,34.0369549 L24.9230769,57.2651061 C24.9230769,58.2233639 25.6916196,59 26.6398911,59 L38.8985704,59 C39.846842,59 40.6153846,58.2233639 40.6153846,57.2651061 L40.6153846,34.0369549 C40.6153846,30.518825 37.7830883,27.65625 34.3016215,27.65625 Z" id="Path" fill="#80D398"></path>
                    <path d="M59.6548205,17.3625793 L47.1040518,0.699508609 C46.7726844,0.259727449 46.2490873,0 45.6920789,0 C45.1350704,0 44.6110156,0.259727449 44.2796482,0.699508609 L31.729795,17.3625793 C31.3348087,17.8869857 31.273936,18.5860443 31.5723497,19.1689682 C31.8712212,19.7518921 32.4781178,20.1201019 33.141768,20.1201019 L37.6591659,20.1201019 L37.6591659,57.2714844 C37.6591659,58.2262191 38.4463923,59 39.4166945,59 L51.9670055,59 C52.9377654,59 53.7245342,58.2262191 53.7245342,57.2714844 L53.7245342,20.1201019 L58.2423898,20.1201019 C58.9060399,20.1201019 59.5133943,19.7518921 59.8122658,19.1689682 C60.1106794,18.5860443 60.0498067,17.8869857 59.6548205,17.3625793 Z" id="Path" fill="#00B44B"></path>
                </g>
            </g>
        </g>
    </g>
</svg>