<?xml version="1.0" encoding="UTF-8"?>
<svg width="100px" height="100px" viewBox="0 0 100 100" version="1.1" xmlns="http://www.w3.org/2000/svg" xmlns:xlink="http://www.w3.org/1999/xlink">
    <!-- Generator: Sketch 52.5 (67469) - http://www.bohemiancoding.com/sketch -->
    <title>Group 11</title>
    <desc>Created with Sketch.</desc>
    <g id="Page-1" stroke="none" stroke-width="1" fill="none" fill-rule="evenodd">
        <g id="Partner-With-Us" transform="translate(-484.000000, -1640.000000)">
            <g id="Group-11" transform="translate(484.000000, 1640.000000)">
                <circle id="Oval-Copy-12" fill="#D8D8D8" fill-rule="nonzero" opacity="0.329999983" cx="50" cy="50" r="50"></circle>
                <g id="924487" transform="translate(24.000000, 20.000000)">
                    <path d="M52.9896814,7.15207031 C52.9896814,11.1028125 49.785292,14.3053125 45.832219,14.3053125 C44.8968628,14.3053125 44.0048916,14.1260156 43.1864403,13.8 C42.7904646,13.6423828 42.4124292,13.4499609 42.0549137,13.2285937 C40.0254358,11.9654297 38.6747566,9.71695312 38.6747566,7.15207031 C38.6747566,5.08042969 39.5559403,3.21328125 40.9654823,1.90804687 C41.6768783,1.24757812 42.5231195,0.731484375 43.4596482,0.403007812 C44.2023518,0.141914063 45.0004004,0 45.832219,0 C49.785292,0 52.9896814,3.2025 52.9896814,7.15207031 Z" id="Path" fill="#0054A0"></path>
                    <path d="M44.5381748,9.06011719 C44.5381748,10.7984766 44.0446416,12.42375 43.186323,13.8001172 C42.7903473,13.6425 42.4123119,13.4500781 42.0547965,13.2287109 C40.0253186,11.9655469 38.6746394,9.71707031 38.6746394,7.1521875 C38.6746394,5.08054687 39.555823,3.21339844 40.965365,1.90816406 C43.1346128,3.54410156 44.5381748,6.1415625 44.5381748,9.06011719 Z" id="Path" fill="#003A7F"></path>
                    <path d="M51.7678673,23.4823828 L51.7678673,30.1122656 C51.7678673,30.6440625 51.3369491,31.0747266 50.8048385,31.0747266 L39.8579934,31.0747266 L39.8579934,23.4823828 C39.8579934,22.2649219 40.2251239,21.1316016 40.8535022,20.1884766 C40.9161173,20.0946094 40.9810774,20.0020313 41.0509624,19.9117969 C41.181,19.7373047 41.3206527,19.5700781 41.4710929,19.4101172 C42.5568894,18.2539453 44.1012765,17.5310156 45.8141615,17.5310156 C47.4572788,17.5310156 48.9463208,18.1974609 50.0236748,19.2741797 C50.3029801,19.5520313 50.5544956,19.86 50.7736482,20.1896484 C51.4019093,21.1328906 51.7678673,22.2649219 51.7678673,23.4823828 Z" id="Path" fill="#0054A0"></path>
                    <g id="Group" transform="translate(39.750000, 18.867188)" fill="#003A7F">
                        <path d="M6.93561283,0.984492188 L6.93561283,12.2075391 L5.12997788,12.2075391 L5.12997788,0.984492188 C5.12997788,0.486445313 5.53439602,0.082265625 6.03273673,0.082265625 C6.53236726,0.0821484375 6.93561283,0.486328125 6.93561283,0.984492188 Z" id="Path"></path>
                        <path d="M3.56636062,6.52171875 L3.56636062,12.2073047 L0.107993363,12.2073047 L0.107993363,4.61484375 C0.107993363,3.39738281 0.475123894,2.2640625 1.10350221,1.3209375 C1.16611726,1.22707031 1.23107743,1.13449219 1.30096239,1.04425781 C1.65965044,1.40273437 1.98468584,1.8009375 2.26879867,2.22808594 C3.11738496,3.50203125 3.56636062,4.9865625 3.56636062,6.52171875 Z" id="Path"></path>
                    </g>
                    <path d="M50.0757367,19.3263281 L48.372115,20.9262891 C48.1105155,21.1720312 47.7016416,21.1681641 47.4447323,20.9175 L45.8136925,19.3263281 L44.1826527,20.9175 C43.9257434,21.1681641 43.5168695,21.1720312 43.2552699,20.9262891 L41.5517655,19.3263281 C42.6325199,18.2180859 44.1431372,17.5304297 45.8138097,17.5304297 C47.4845996,17.5304297 48.9949823,18.2179687 50.075854,19.3260938 L50.0757367,19.3263281 Z" id="Path" fill="#1D71B8"></path>
                    <path d="M45.813458,19.3263281 C45.0850597,19.3263281 44.4946726,18.7361719 44.4946726,18.0083203 L44.4946726,15.7351172 L47.1322434,15.7351172 L47.1322434,18.0083203 C47.1322434,18.7361719 46.5418562,19.3263281 45.813458,19.3263281 Z" id="Path" fill="#E8A96B"></path>
                    <path d="M50.5617655,6.35320312 L50.3354602,9.07570313 L50.0284823,12.7413281 C49.8442721,14.9452734 48.0013496,16.6403906 45.7888341,16.6403906 C44.392542,16.6403906 43.1430553,15.9655078 42.3665819,14.9128125 C42.0223164,14.4496875 41.7719735,13.9130859 41.6394735,13.3284375 C41.5960885,13.1371875 41.5660708,12.9421875 41.5491858,12.7413281 L41.2277854,8.89757812 L41.0159027,6.35320312 L50.5617655,6.35320312 Z" id="Path" fill="#FCCE99"></path>
                    <path d="M44.5381748,9.06011719 C44.5381748,11.2941797 43.7232412,13.3416797 42.3665819,14.9129297 C42.0223164,14.4498047 41.7719735,13.9132031 41.6394735,13.3285547 C41.5960885,13.1373047 41.5660708,12.9423047 41.5491858,12.7414453 L41.2277854,8.89769531 L41.0159027,6.35332031 L44.1203894,6.35332031 C44.3913695,7.20738281 44.5381748,8.116875 44.5381748,9.06011719 Z" id="Path" fill="#E8A96B"></path>
                    <path d="M51.3826792,5.37878906 L51.3826792,8.90484375 C48.0351195,9.13101562 45.6852965,7.80890625 45.6852965,7.80890625 L45.6852965,8.41488281 C45.6852965,8.683125 45.4554735,8.89265625 45.1877765,8.87121094 C44.9601814,8.85292969 44.7425531,8.83148438 44.5344226,8.80746094 C44.2852522,8.77863281 44.0505044,8.74605469 43.8278341,8.70996094 C40.8316925,8.22398438 40.1840841,7.15207031 40.1840841,7.15207031 L40.1840841,5.37878906 L51.3826792,5.37878906 Z" id="Path" fill="#0054A0"></path>
                    <path d="M44.5345398,8.80746094 C44.2853695,8.77863281 44.0506217,8.74605469 43.8279513,8.70996094 C40.8318097,8.22398438 40.1842013,7.15207031 40.1842013,7.15207031 L40.1842013,5.37878906 L43.7449336,5.37878906 C44.2215819,6.42902344 44.5008872,7.58871094 44.5345398,8.80746094 Z" id="Path" fill="#003A7F"></path>
                    <path d="M42.7325398,9.06011719 C42.7325398,12.8954297 39.7111881,16.0269141 35.9168805,16.2049219 C35.8037279,16.2108984 35.6894027,16.2133594 35.5750774,16.2133594 C34.1884004,16.2133594 32.8931836,15.8187891 31.7977721,15.1354687 C29.7682942,13.8734766 28.417615,11.6238281 28.417615,9.06011719 C28.417615,7.95445312 28.6692478,6.90667969 29.1169336,5.971875 C29.9330398,4.27078125 31.4040243,2.94140625 33.2023894,2.30988281 C33.9450929,2.04878906 34.7431416,1.906875 35.5749602,1.906875 C39.5282677,1.90675781 42.7325398,5.10925781 42.7325398,9.06011719 Z" id="Path" fill="#0054A0"></path>
                    <path d="M32.1937478,8.96507812 C31.2716416,7.84382812 30.2388451,6.84175781 29.1169336,5.971875 C28.6691305,6.90667969 28.417615,7.95445312 28.417615,9.06011719 C28.417615,11.6237109 29.768177,13.8734766 31.7977721,15.1354688 C32.8931836,15.8187891 34.1884004,16.2133594 35.5750774,16.2133594 C35.6894027,16.2133594 35.8038451,16.2108984 35.9168805,16.2049219 C35.2223695,13.5847266 33.9669027,11.1220312 32.1937478,8.96507812 Z" id="Path" fill="#003A7F"></path>
                    <path d="M41.5107257,25.3891406 L41.5107257,32.0203125 C41.5107257,32.5519922 41.0798075,32.9827734 40.5476969,32.9827734 L29.6008518,32.9827734 L29.6008518,25.3891406 C29.6008518,24.1716797 29.9679823,23.0396484 30.5963606,22.0964063 C30.7805708,21.8197266 30.9863562,21.5586328 31.2138341,21.3180469 C32.2996305,20.1607031 33.8440177,19.4389453 35.5569027,19.4389453 C35.872323,19.4389453 36.1828186,19.4630859 36.4849889,19.5111328 C37.7573407,19.7096484 38.8961372,20.3111719 39.7664159,21.1809375 C40.0457212,21.4600781 40.2972367,21.7680469 40.5163894,22.0964063 C41.1447677,23.0396484 41.5107257,24.1716797 41.5107257,25.3891406 Z" id="Path" fill="#0054A0"></path>
                    <g id="Group" transform="translate(29.548673, 19.335938)" fill="#003A7F">
                        <path d="M6.87979867,2.53195312 L6.87979867,13.6468359 L5.07416372,13.6468359 L5.07416372,2.53195312 C5.07416372,2.03273438 5.47858186,1.62972656 5.97692257,1.62972656 C6.47538053,1.62972656 6.87979867,2.03273438 6.87979867,2.53195312 Z" id="Path"></path>
                        <path d="M6.93643363,0.17484375 C6.63426327,0.126679687 6.3237677,0.10265625 6.00834735,0.10265625 C4.29546239,0.10265625 2.75095796,0.82453125 1.66527876,1.98175781 C1.43780088,2.22234375 1.23189823,2.4834375 1.04780531,2.76011719 C0.419426991,3.70335937 0.0522964602,4.83539062 0.0522964602,6.05285156 L0.0522964602,13.6463672 L2.89670796,13.6463672 C5.15014602,10.7975391 6.54526549,7.36054687 6.90876106,3.66117187 C7.02437611,2.48953125 7.03281858,1.32375 6.93643363,0.17484375 Z" id="Path"></path>
                    </g>
                    <path d="M39.8184779,21.2337891 L38.1148562,22.83375 C37.8532566,23.0794922 37.4443827,23.075625 37.1874735,22.8249609 L35.5564336,21.2337891 L33.9253938,22.8249609 C33.6684845,23.075625 33.2596106,23.0794922 32.9980111,22.83375 L31.2945066,21.2337891 C32.3752611,20.1255469 33.8858783,19.4378906 35.5565509,19.4378906 C37.2273407,19.4378906 38.7377235,20.1254297 39.8185951,21.2335547 L39.8184779,21.2337891 Z" id="Path" fill="#1D71B8"></path>
                    <path d="M35.5561991,21.2337891 C34.8278009,21.2337891 34.2374137,20.6436328 34.2374137,19.9157812 L34.2374137,17.6425781 L36.8749845,17.6425781 L36.8749845,19.9157812 C36.8751018,20.64375 36.2845973,21.2337891 35.5561991,21.2337891 Z" id="Path" fill="#E8A96B"></path>
                    <path d="M40.3046239,8.26007812 L40.0783186,10.98375 L39.7713407,14.649375 C39.6112854,16.5670312 38.1931836,18.0997266 36.3696084,18.4641797 C36.0987456,18.5183203 35.8182677,18.5471484 35.5318097,18.5471484 C33.5203894,18.5471484 31.8134845,17.146875 31.3824491,15.2363672 C31.3390642,15.0451172 31.3090465,14.8489453 31.2921615,14.6492578 L30.9707611,10.8055078 L30.7577058,8.25984375 L40.3046239,8.25984375 L40.3046239,8.26007812 Z" id="Path" fill="#FCCE99"></path>
                    <path d="M32.1937478,8.96507812 C31.9962876,8.72449219 31.7928473,8.48988281 31.5845996,8.26007812 L30.7575885,8.26007812 L30.9706438,10.8057422 L31.2920442,14.6494922 C31.3089292,14.8491797 31.3389469,15.0453516 31.3823319,15.2366016 C31.81325,17.1469922 33.5201549,18.5473828 35.5316925,18.5473828 C35.8181504,18.5473828 36.0986283,18.5185547 36.3694912,18.4644141 C35.8928429,15.0042188 34.4688783,11.7319922 32.1937478,8.96507812 Z" id="Path" fill="#E8A96B"></path>
                    <path d="M41.1255376,7.28683594 L41.1255376,10.8128906 C37.7779779,11.0390625 35.4281549,9.71566406 35.4281549,9.71566406 L35.4281549,10.3219922 C35.4281549,10.5884766 35.2009115,10.8001172 34.935208,10.7786719 C34.4332323,10.7382422 33.9801527,10.6832813 33.5708097,10.6166016 C33.5093673,10.6069922 33.4503872,10.5960938 33.3914071,10.5864844 C30.5481681,10.0871484 29.9270597,9.05988281 29.9270597,9.05988281 L29.9270597,7.28683594 L41.1255376,7.28683594 Z" id="Path" fill="#0054A0"></path>
                    <path d="M32.1937478,8.96507812 C31.7061947,8.37070313 31.1861615,7.81136719 30.6397456,7.28683594 L29.927177,7.28683594 L29.927177,9.06011719 C29.927177,9.06011719 30.5482854,10.0875 33.3915243,10.5867188 C33.0232212,10.0297266 32.6234934,9.48832031 32.1937478,8.96507812 Z" id="Path" fill="#003A7F"></path>
                    <path d="M30.9109602,21.1241016 C30.9109602,28.59375 24.8512544,34.6498828 17.3771991,34.6498828 C14.4617301,34.6498828 11.7604889,33.7271484 9.55043584,32.1583594 C8.40331416,31.3450781 7.38974779,30.3574219 6.54714159,29.235 C6.30524115,28.9137891 6.07764602,28.5829687 5.86588053,28.2400781 L5.86588053,28.2389062 C5.07263938,26.9600391 4.48635619,25.5380859 4.15651327,24.0222656 C3.95072788,23.08875 3.84355531,22.1191406 3.84355531,21.1242187 C3.84355531,13.6545703 9.90326106,7.5984375 17.3773164,7.5984375 C18.3728252,7.5984375 19.3441792,7.70554687 20.2783628,7.91121094 C21.7950774,8.24085937 23.2166969,8.82667969 24.4963186,9.61957031 C24.8394115,9.83132812 25.1715996,10.0586719 25.493,10.3004297 C26.6160841,11.1413672 27.604323,12.1555078 28.4180841,13.3007812 C29.9876814,15.5095313 30.9109602,18.2091797 30.9109602,21.1241016 Z" id="Path" fill="#A5C6E3"></path>
                    <path d="M24.4962013,9.61945312 L5.86588053,28.2389062 C5.07263938,26.9600391 4.48635619,25.5380859 4.15651327,24.0222656 L20.2783628,7.91121094 C21.7950774,8.24074219 23.2166969,8.82667969 24.4962013,9.61945312 Z" id="Path" fill="#D2E3F1"></path>
                    <path d="M24.2544181,20.1067969 C23.4809934,21.8095312 22.3352788,22.7702344 22.3352788,22.7702344 L12.2625819,22.7702344 C12.2625819,22.7702344 10.8739115,22.0907812 10.1425819,20.26125 C9.66569912,19.0682812 9.46823894,17.3859375 10.1174889,15.0844922 C11.761896,9.25371094 22.780385,9.16488281 24.507458,14.3335547 C25.2977677,16.700625 24.9090619,18.6684375 24.2544181,20.1067969 Z" id="Path" fill="#F9A13E"></path>
                    <g id="Group" transform="translate(10.084071, 19.570312)" fill="#E2780E">
                        <path d="M14.1703473,0.536484375 C13.3969226,2.23921875 12.251208,3.19992188 12.251208,3.19992188 L9.56345133,3.19992188 C9.56345133,1.44035156 10.8971283,0.0092578125 12.5361416,0.0092578125 C13.1391925,0.0092578125 13.7015553,0.20296875 14.1703473,0.536484375 Z" id="Path"></path>
                        <path d="M4.86556416,3.19992188 L2.17851106,3.19992188 C2.17851106,3.19992188 0.789840708,2.52046875 0.0585110619,0.6909375 C0.563887168,0.264140625 1.20164602,0.0092578125 1.89357743,0.0092578125 C3.53247345,0.0092578125 4.86556416,1.44035156 4.86556416,3.19992188 Z" id="Path"></path>
                    </g>
                    <path d="M23.9637389,37.681875 L23.9637389,45.8119922 C23.9637389,46.3437891 23.5328208,46.7744531 23.0007102,46.7744531 L11.6506195,46.7744531 C11.1197987,46.7744531 10.6875907,46.3437891 10.6875907,45.8119922 L10.6875907,37.681875 C10.6875907,36.2238281 11.0968164,34.8667969 11.7962522,33.7382813 C12.9867588,31.820625 15.0186991,30.5562891 17.3263097,30.5562891 C19.1584447,30.5562891 20.8183296,31.3538672 22.0197412,32.6423438 C22.3315265,32.9767969 22.6120044,33.3437109 22.8550774,33.7395703 C23.5556858,34.8678516 23.9637389,36.2237109 23.9637389,37.681875 Z" id="Path" fill="#D2E3F1"></path>
                    <g id="Group" transform="translate(10.670354, 32.109375)" fill="#A5C6E3">
                        <path d="M8.92862389,14.6649609 L0.980265487,14.6649609 C0.44944469,14.6649609 0.0172367257,14.2342969 0.0172367257,13.7025 L0.0172367257,7.94355469 C4.24598009,7.94367187 7.82230752,10.78875 8.92862389,14.6649609 Z" id="Path"></path>
                        <path d="M7.52506195,0.922734375 L7.52506195,14.4328125 C7.52506195,14.5134375 7.51427434,14.5904297 7.49375442,14.6649609 L5.75073451,14.6649609 C5.7302146,14.5904297 5.71942699,14.5133203 5.71942699,14.4328125 L5.71942699,0.922734375 C5.71942699,0.4246875 6.12384513,0.0205078125 6.62218584,0.0205078125 C7.12052655,0.020390625 7.52506195,0.4246875 7.52506195,0.922734375 Z" id="Path"></path>
                    </g>
                    <path d="M22.0774314,32.7060938 L19.6566681,35.1482812 L18.0171858,33.4291406 L17.3261925,32.7060937 L16.6412965,33.4243359 L14.9958341,35.1482812 L12.5750708,32.7060938 C12.6256084,32.6507813 12.676146,32.5954688 12.729146,32.5425 C13.9208252,31.3117969 15.54225,30.5551172 17.3263097,30.5551172 C19.1235022,30.5551172 20.7533695,31.3214062 21.9475111,32.5666406 C21.9715487,32.5919531 21.9957035,32.6171484 22.0197412,32.6424609 C22.0389712,32.6639063 22.0582013,32.6844141 22.0774314,32.7060938 Z" id="Path" fill="#5A9BCC"></path>
                    <path d="M17.3260752,32.7058594 C16.514073,32.7058594 15.8559115,32.0480859 15.8559115,31.2365625 L15.8559115,28.4054297 L18.7962389,28.4054297 L18.7962389,31.2365625 C18.7962389,32.0479688 18.1380774,32.7058594 17.3260752,32.7058594 Z" id="Path" fill="#FCCE99"></path>
                    <ellipse id="Oval" fill="#8AE46D" cx="10.6879425" cy="49.3101562" rx="8.05904867" ry="8.05429688"></ellipse>
                    <path d="M15.2568473,46.4469141 L14.3590133,45.5496094 C14.0297566,45.2205469 13.4960044,45.2205469 13.166865,45.5496094 L9.22493142,49.4892188 L7.7309646,47.9961328 C7.40170796,47.6670703 6.86795575,47.6670703 6.53881637,47.9961328 L5.6409823,48.8934375 C5.31172566,49.2225 5.31172566,49.7559375 5.6409823,50.085 L8.62891593,53.0711719 C8.95817257,53.4002344 9.49192478,53.4002344 9.82106416,53.0711719 L15.2569646,47.6384766 C15.586104,47.3094141 15.586104,46.7759766 15.2568473,46.4469141 Z" id="Path" fill="#FFF4EB"></path>
                    <path d="M22.0775487,41.4892969 L19.4877013,41.4892969 C18.9891261,41.4892969 18.5849425,41.0853516 18.5849425,40.5870703 C18.5849425,40.0886719 18.9891261,39.6848437 19.4877013,39.6848437 L22.0775487,39.6848437 C22.5761239,39.6848437 22.9803075,40.0887891 22.9803075,40.5870703 C22.9803075,41.0853516 22.5761239,41.4892969 22.0775487,41.4892969 Z" id="Path" fill="#5A9BCC"></path>
                    <g id="Group" transform="translate(9.966814, 20.625000)" fill="#FCCE99">
                        <ellipse id="Oval" cx="12.6531637" cy="2.14570312" rx="1.95466814" ry="2.09847656"></ellipse>
                        <ellipse id="Oval" cx="2.01095133" cy="2.14570312" rx="1.95466814" ry="2.09847656"></ellipse>
                    </g>
                    <path d="M22.6199779,17.1704297 L22.366469,20.4311719 L22.0250177,24.8208984 C21.8201704,27.4597266 19.765365,29.4889453 17.2984027,29.4889453 C14.8322611,29.4889453 12.7774558,27.4597266 12.5726084,24.8208984 L12.2146239,20.2182422 L11.9776482,17.1704297 L22.6199779,17.1704297 Z" id="Path" fill="#FEE6CC"></path>
                    <path d="M22.6199779,17.1704297 L22.366469,20.4311719 C21.5534115,20.5954687 20.7281593,20.6776172 19.8920022,20.6776172 C17.1402235,20.6776172 14.9390819,19.7791406 13.784573,19.1846484 C13.4027854,19.5247266 12.8793518,19.9099219 12.2145066,20.2182422 L11.977531,17.1704297 L22.6199779,17.1704297 Z" id="Path" fill="#FCCE99"></path>
                    <path d="M21.6325597,15.5371875 C23.2783739,16.873125 26.1584314,17.5148438 26.1584314,17.5148438 C19.4930951,21.6235547 13.5683518,17.5582031 13.5683518,17.5582031 C13.5683518,17.5582031 12.8102876,18.6172266 11.3496217,19.1582813 L11.3496217,15.5371875 L21.6325597,15.5371875 Z" id="Path" fill="#F9A13E"></path>
                    <path d="M19.8769934,20.2508203 C18.8609646,20.2508203 17.9462456,20.1270703 17.172,19.9590234 C15.634531,19.6250391 14.4372235,19.0788281 13.7393119,18.7052344 C13.2986615,19.1221875 12.6030951,19.6562109 11.6632832,20.004375 C11.1955465,20.1774609 10.6762168,19.9392187 10.5030288,19.4719922 C10.3297235,19.0047656 10.5682235,18.485625 11.0357257,18.3124219 C12.1987942,17.8816406 12.8313938,17.0368359 12.8376084,17.0282812 C13.1238319,16.6285547 13.6737655,16.5360937 14.0792389,16.8144141 C14.0911991,16.8223828 15.4914779,17.7607031 17.6246106,18.2103516 C19.7386305,18.6560156 21.7963673,18.4879687 23.7656925,17.7124219 C22.8634027,17.3629687 21.8486637,16.875 21.0632788,16.2375 C20.6762146,15.9233203 20.6173518,15.3550781 20.9317168,14.9683594 C21.2461991,14.5815234 21.8146593,14.5224609 22.2017235,14.836875 C23.6591062,16.0197656 26.3285708,16.6283203 26.3554226,16.6342969 C26.7136416,16.7146875 26.9879049,17.0037891 27.0485265,17.3656641 C27.1091482,17.7276562 26.9448717,18.0902344 26.6323827,18.2828906 C24.1927412,19.7866406 21.8450288,20.2508203 19.8769934,20.2508203 Z" id="Path" fill="#E2780E"></path>
                    <g id="Group" transform="translate(13.836283, 21.328125)" fill="#1D71B8">
                        <path d="M0.93899115,2.01714844 C0.440415929,2.01714844 0.0362323009,1.61320312 0.0362323009,1.11492187 L0.0362323009,1.00265625 C0.0362323009,0.504257812 0.440415929,0.100429687 0.93899115,0.100429687 C1.43756637,0.100429687 1.84175,0.504375 1.84175,1.00265625 L1.84175,1.11492187 C1.84175,1.61320312 1.43756637,2.01714844 0.93899115,2.01714844 Z" id="Path"></path>
                        <path d="M5.97328761,2.01714844 C5.47471239,2.01714844 5.07052876,1.61320312 5.07052876,1.11492187 L5.07052876,1.00265625 C5.07052876,0.504257812 5.47471239,0.100429687 5.97328761,0.100429687 C6.47186283,0.100429687 6.87604646,0.504375 6.87604646,1.00265625 L6.87604646,1.11492187 C6.87616372,1.61320312 6.47198009,2.01714844 5.97328761,2.01714844 Z" id="Path"></path>
                    </g>
                    <path d="M17.3770819,27.0277734 C16.7149336,27.0277734 16.0944115,26.8175391 15.6298407,26.4359766 C15.2446527,26.1195703 15.1889558,25.5510937 15.5055487,25.1661328 C15.8221416,24.7811719 16.3911881,24.725625 16.7762588,25.0419141 C16.9145044,25.1553516 17.1390509,25.2232031 17.3770819,25.2232031 C17.6151128,25.2232031 17.8396593,25.1554687 17.9779049,25.0419141 C18.3630929,24.7252734 18.9320221,24.7809375 19.248615,25.1661328 C19.565208,25.5510937 19.5095111,26.1196875 19.124323,26.4359766 C18.659635,26.8176562 18.0391128,27.0277734 17.3770819,27.0277734 Z" id="Path" fill="#E8A96B"></path>
                    <polygon id="Path" fill="#FEC007" points="48.4816327 52.7377734 42.2232942 57.8735156 34.4952611 48.4669922 33.3493119 47.0726953 30.206365 43.2482813 36.4645863 38.1125391 39.6075332 41.9369531 40.7535996 43.33125"></polygon>
                    <g id="Group" transform="translate(30.134956, 38.085938)" fill="#FE9700">
                        <polygon id="Rectangle" transform="translate(4.248525, 3.871042) rotate(50.608194) translate(-4.248525, -3.871042) " points="2.59766929 -0.176161782 5.90174855 -0.177117593 5.89940698 7.91821336 2.59532772 7.91916917"></polygon>
                        <polygon id="Rectangle" transform="translate(13.807752, 15.506653) rotate(50.608194) translate(-13.807752, -15.506653) " points="11.5907504 11.4596291 16.0270942 11.4583457 16.0247527 19.5536767 11.5884088 19.55496"></polygon>
                    </g>
                    <polygon id="Rectangle" fill="#1E70AD" transform="translate(29.564953, 36.090860) rotate(140.608194) translate(-29.564953, -36.090860) " points="27.3693845 32.6426203 31.7585267 32.6438899 31.7605214 39.5390997 27.3713792 39.5378302"></polygon>
                    <g id="Group" transform="translate(27.438053, 35.039062)" fill="#5A9BCC">
                        <path d="M10.9563429,3.4284375 L2.74122566,10.1701172 C2.41314159,10.4394141 1.92875442,10.3918359 1.65941593,10.0639453 L0.672584071,8.86277344 C-0.35845354,7.60792969 -0.176353982,5.75542969 1.07923009,4.725 L5.93564823,0.739570312 C7.1912323,-0.290859375 9.04482522,-0.108867188 10.0758628,1.14597656 L11.0626947,2.34714844 C11.3320332,2.67503906 11.284427,3.15914063 10.9563429,3.4284375 Z" id="Path"></path>
                        <path d="M12.1355929,21.6042187 L20.3507102,14.8625391 C20.6787942,14.5932422 21.1631814,14.6408203 21.4325199,14.9687109 L22.4193518,16.1698828 C23.4503894,17.4247266 23.2682898,19.2772266 22.0127058,20.3076563 L17.1564049,24.2929688 C15.9008208,25.3233984 14.0472279,25.1414062 13.0161903,23.8865625 L12.0293584,22.6853906 C11.7599027,22.3576172 11.8075088,21.8735156 12.1355929,21.6042187 Z" id="Path"></path>
                    </g>
                    <path d="M22.0196239,32.6422266 C21.9955863,32.6169141 21.9714314,32.5917188 21.9473938,32.5664063 C20.6979071,33.065625 19.3689204,33.3603516 18.0171858,33.4290234 L19.6566681,35.1481641 L22.0774314,32.7059766 C22.0582013,32.6844141 22.0389712,32.6639063 22.0196239,32.6422266 Z M12.5750708,32.7060938 L14.9958341,35.1482812 L16.6412965,33.4243359 C15.282292,33.3437109 13.9629204,33.0430078 12.729146,32.5425 C12.676146,32.5953516 12.6256084,32.6506641 12.5750708,32.7060938 Z" id="Shape" fill="#1E70AD" fill-rule="nonzero"></path>
                    <path d="M6.35659956,7.71035156 C-1.05601327,13.7935547 -2.13090487,24.7298438 3.95588717,32.1382031 C10.0426792,39.5464453 20.9855376,40.6207031 28.3981504,34.5375 C35.8107633,28.4542969 36.8855376,17.5178906 30.7988628,10.1096484 C24.7120708,2.70140625 13.7692124,1.62726563 6.35659956,7.71035156 Z M25.965896,31.5771094 C20.1895996,36.3173437 11.6610553,35.4801562 6.91802434,29.7073828 C2.17499336,23.9344922 3.01267478,15.4109766 8.78885398,10.6707422 C14.5650332,5.93050781 23.0936947,6.76757812 27.8367257,12.5404687 C32.5797566,18.3132422 31.7420752,26.836875 25.965896,31.5771094 Z" id="Shape" fill="#5A9BCC" fill-rule="nonzero"></path>
                    <polygon id="Rectangle" fill="#FE9700" transform="translate(37.051205, 45.199230) rotate(140.608194) translate(-37.051205, -45.199230) " points="33.0032785 44.2957048 41.0986094 44.2980464 41.0991315 46.1027542 33.0038006 46.1004127"></polygon>
                </g>
            </g>
        </g>
    </g>
</svg>